<svg width="22" height="22" viewBox="0 0 22 22" fill="none" xmlns="http://www.w3.org/2000/svg">
<path d="M10.9997 20.8543C5.56384 20.8543 1.14551 16.436 1.14551 11.0002C1.14551 5.56433 5.56384 1.146 10.9997 1.146C16.4355 1.146 20.8538 5.56433 20.8538 11.0002C20.8538 16.436 16.4355 20.8543 10.9997 20.8543ZM10.9997 2.521C6.32467 2.521 2.52051 6.32516 2.52051 11.0002C2.52051 15.6752 6.32467 19.4793 10.9997 19.4793C15.6747 19.4793 19.4788 15.6752 19.4788 11.0002C19.4788 6.32516 15.6747 2.521 10.9997 2.521Z" fill="#757575"/>
<path d="M11 12.6043C10.6242 12.6043 10.3125 12.2927 10.3125 11.9168V7.3335C10.3125 6.95766 10.6242 6.646 11 6.646C11.3758 6.646 11.6875 6.95766 11.6875 7.3335V11.9168C11.6875 12.2927 11.3758 12.6043 11 12.6043Z" fill="#757575"/>
<path d="M10.9997 15.5831C10.8805 15.5831 10.7613 15.5556 10.6513 15.5098C10.5413 15.464 10.4405 15.3998 10.3488 15.3173C10.2663 15.2256 10.2022 15.134 10.1563 15.0148C10.1105 14.9048 10.083 14.7856 10.083 14.6665C10.083 14.5473 10.1105 14.4281 10.1563 14.3181C10.2022 14.2081 10.2663 14.1073 10.3488 14.0156C10.4405 13.9331 10.5413 13.869 10.6513 13.8231C10.8713 13.7315 11.128 13.7315 11.348 13.8231C11.458 13.869 11.5588 13.9331 11.6505 14.0156C11.733 14.1073 11.7972 14.2081 11.843 14.3181C11.8888 14.4281 11.9163 14.5473 11.9163 14.6665C11.9163 14.7856 11.8888 14.9048 11.843 15.0148C11.7972 15.134 11.733 15.2256 11.6505 15.3173C11.5588 15.3998 11.458 15.464 11.348 15.5098C11.238 15.5556 11.1188 15.5831 10.9997 15.5831Z" fill="#757575"/>
</svg>
