<svg width="22" height="22" viewBox="0 0 22 22" fill="none" xmlns="http://www.w3.org/2000/svg">
<path d="M11 14.4375C9.1025 14.4375 7.5625 12.8975 7.5625 11C7.5625 9.1025 9.1025 7.5625 11 7.5625C12.8975 7.5625 14.4375 9.1025 14.4375 11C14.4375 12.8975 12.8975 14.4375 11 14.4375ZM11 8.9375C9.86333 8.9375 8.9375 9.86333 8.9375 11C8.9375 12.1367 9.86333 13.0625 11 13.0625C12.1367 13.0625 13.0625 12.1367 13.0625 11C13.0625 9.86333 12.1367 8.9375 11 8.9375Z" fill="#757575"/>
<path d="M13.9422 20.3408C13.7497 20.3408 13.5572 20.3133 13.3647 20.2674C12.7963 20.1116 12.3197 19.7541 12.0172 19.2499L11.9072 19.0666C11.3663 18.1316 10.6238 18.1316 10.083 19.0666L9.98217 19.2408C9.67968 19.7541 9.20301 20.1208 8.63467 20.2674C8.05717 20.4233 7.46134 20.3408 6.95717 20.0383L5.38051 19.1308C4.82134 18.8099 4.41801 18.2874 4.24384 17.6549C4.07884 17.0224 4.16134 16.3716 4.48217 15.8124C4.74801 15.3449 4.82134 14.9233 4.66551 14.6574C4.50967 14.3916 4.11551 14.2358 3.57467 14.2358C2.23634 14.2358 1.14551 13.1449 1.14551 11.8066V10.1933C1.14551 8.85494 2.23634 7.7641 3.57467 7.7641C4.11551 7.7641 4.50967 7.60827 4.66551 7.34244C4.82134 7.0766 4.75717 6.65494 4.48217 6.18744C4.16134 5.62827 4.07884 4.96827 4.24384 4.34494C4.40884 3.71244 4.81217 3.18994 5.38051 2.8691L6.96634 1.9616C8.00217 1.34744 9.36801 1.70494 9.99134 2.7591L10.1013 2.94244C10.6422 3.87744 11.3847 3.87744 11.9255 2.94244L12.0263 2.76827C12.6497 1.70494 14.0155 1.34744 15.0605 1.97077L16.6372 2.87827C17.1963 3.1991 17.5997 3.7216 17.7738 4.3541C17.9388 4.9866 17.8563 5.63744 17.5355 6.1966C17.2697 6.6641 17.1963 7.08577 17.3522 7.3516C17.508 7.61744 17.9022 7.77327 18.443 7.77327C19.7813 7.77327 20.8722 8.8641 20.8722 10.2024V11.8158C20.8722 13.1541 19.7813 14.2449 18.443 14.2449C17.9022 14.2449 17.508 14.4008 17.3522 14.6666C17.1963 14.9324 17.2605 15.3541 17.5355 15.8216C17.8563 16.3808 17.948 17.0408 17.7738 17.6641C17.6088 18.2966 17.2055 18.8191 16.6372 19.1399L15.0513 20.0474C14.703 20.2399 14.3272 20.3408 13.9422 20.3408ZM10.9997 16.9491C11.8155 16.9491 12.5763 17.4624 13.0988 18.3699L13.1997 18.5441C13.3097 18.7366 13.493 18.8741 13.713 18.9291C13.933 18.9841 14.153 18.9566 14.3363 18.8466L15.9222 17.9299C16.1605 17.7924 16.3438 17.5633 16.4172 17.2883C16.4905 17.0133 16.4538 16.7291 16.3163 16.4908C15.7938 15.5924 15.7297 14.6666 16.133 13.9608C16.5363 13.2549 17.3705 12.8516 18.4155 12.8516C19.0022 12.8516 19.4697 12.3841 19.4697 11.7974V10.1841C19.4697 9.6066 19.0022 9.12994 18.4155 9.12994C17.3705 9.12994 16.5363 8.7266 16.133 8.02077C15.7297 7.31494 15.7938 6.3891 16.3163 5.49077C16.4538 5.25244 16.4905 4.96827 16.4172 4.69327C16.3438 4.41827 16.1697 4.19827 15.9313 4.0516L14.3455 3.1441C13.9513 2.90577 13.4288 3.04327 13.1905 3.4466L13.0897 3.62077C12.5672 4.52827 11.8063 5.0416 10.9905 5.0416C10.1747 5.0416 9.41384 4.52827 8.89134 3.62077L8.79051 3.43744C8.56134 3.05244 8.04801 2.91494 7.65384 3.1441L6.06801 4.06077C5.82967 4.19827 5.64634 4.42744 5.57301 4.70244C5.49967 4.97744 5.53634 5.2616 5.67384 5.49994C6.19634 6.39827 6.26051 7.3241 5.85717 8.02994C5.45384 8.73577 4.61967 9.1391 3.57467 9.1391C2.98801 9.1391 2.52051 9.6066 2.52051 10.1933V11.8066C2.52051 12.3841 2.98801 12.8608 3.57467 12.8608C4.61967 12.8608 5.45384 13.2641 5.85717 13.9699C6.26051 14.6758 6.19634 15.6016 5.67384 16.4999C5.53634 16.7383 5.49967 17.0224 5.57301 17.2974C5.64634 17.5724 5.82051 17.7924 6.05884 17.9391L7.64467 18.8466C7.83717 18.9658 8.06634 18.9933 8.27717 18.9383C8.49717 18.8833 8.68051 18.7366 8.79967 18.5441L8.90051 18.3699C9.42301 17.4716 10.1838 16.9491 10.9997 16.9491Z" fill="#757575"/>
</svg>
