<svg width="23" height="22" viewBox="0 0 23 22" fill="none" xmlns="http://www.w3.org/2000/svg">
<path d="M13.4782 6.64564C13.304 6.64564 13.1298 6.58148 12.9923 6.44398L11.1315 4.58314L9.27065 6.44398C9.00482 6.70981 8.56482 6.70981 8.29898 6.44398C8.03315 6.17814 8.03315 5.73814 8.29898 5.47231L10.6457 3.12564C10.9115 2.85981 11.3515 2.85981 11.6173 3.12564L13.964 5.47231C14.2298 5.73814 14.2298 6.17814 13.964 6.44398C13.8265 6.58148 13.6523 6.64564 13.4782 6.64564Z" fill="#292D32"/>
<path d="M11.1309 13.6858C10.755 13.6858 10.4434 13.3741 10.4434 12.9983V3.67578C10.4434 3.29995 10.755 2.98828 11.1309 2.98828C11.5067 2.98828 11.8184 3.29995 11.8184 3.67578V12.9983C11.8184 13.3833 11.5067 13.6858 11.1309 13.6858Z" fill="#292D32"/>
<path d="M11.2415 19.0208C6.5207 19.0208 3.2207 15.7208 3.2207 11C3.2207 10.6242 3.53237 10.3125 3.9082 10.3125C4.28404 10.3125 4.5957 10.6242 4.5957 11C4.5957 14.9142 7.32737 17.6458 11.2415 17.6458C15.1557 17.6458 17.8874 14.9142 17.8874 11C17.8874 10.6242 18.199 10.3125 18.5749 10.3125C18.9507 10.3125 19.2624 10.6242 19.2624 11C19.2624 15.7208 15.9624 19.0208 11.2415 19.0208Z" fill="#292D32"/>
</svg>
