<svg width="40" height="40" viewBox="0 0 40 40" fill="none" xmlns="http://www.w3.org/2000/svg">
<g filter="url(#filter0_ii_1645_753)">
<path fill-rule="evenodd" clip-rule="evenodd" d="M9.16862 3.3335C7.69586 3.3335 6.50195 4.5274 6.50195 6.00016V34.0002C6.50195 35.4729 7.69586 36.6668 9.16862 36.6668H30.8353C32.308 36.6668 33.502 35.4729 33.502 34.0002V6.00016C33.502 5.97201 33.5015 5.94395 33.5007 5.91601V11.6668L25.1673 3.3335H9.16862Z" fill="#576A95"/>
</g>
<g filter="url(#filter1_dd_1645_753)">
<path d="M22.2923 24.1505V28.6772C22.2923 28.8259 22.2629 28.9731 22.2059 29.1104C22.1488 29.2477 22.0653 29.3724 21.96 29.4774C21.7472 29.6897 21.4589 29.8089 21.1584 29.8089H18.8429C18.5424 29.8089 18.2541 29.6898 18.0413 29.4776C17.9359 29.3726 17.8524 29.2478 17.7954 29.1104C17.7383 28.973 17.709 28.8257 17.709 28.677V24.1505H22.2923ZM21.1584 26.7439H18.8429V29.0168H21.1584V26.7439ZM22.2544 19.6239V21.8968H19.9771V19.6239H22.2544ZM20.0054 3.66699V5.95866H22.2923V8.25033H20.0052V10.3722H22.2923V12.6639H20.0054V14.9274H22.2923V17.1909H20.0054V19.4543H17.709V17.1907H19.9959V14.9272H17.709V12.6639H19.9959V10.3722H17.709V8.08053H19.9959V5.95866H17.709V3.66699H20.0054Z" fill="white"/>
</g>
<path d="M32.7175 10.8853H25.9473L33.4993 18.4373V11.6665L32.7175 10.8853Z" fill="url(#paint0_linear_1645_753)"/>
<path d="M27.8333 11.6665L33.5 11.6665L25.1667 3.33317L25.1667 8.99984C25.1667 10.4726 26.3606 11.6665 27.8333 11.6665Z" fill="#BBC3D4"/>
<defs>
<filter id="filter0_ii_1645_753" x="6.50195" y="3.16683" width="27" height="33.6668" filterUnits="userSpaceOnUse" color-interpolation-filters="sRGB">
<feFlood flood-opacity="0" result="BackgroundImageFix"/>
<feBlend mode="normal" in="SourceGraphic" in2="BackgroundImageFix" result="shape"/>
<feColorMatrix in="SourceAlpha" type="matrix" values="0 0 0 0 0 0 0 0 0 0 0 0 0 0 0 0 0 0 127 0" result="hardAlpha"/>
<feOffset dy="-0.333333"/>
<feGaussianBlur stdDeviation="0.0833333"/>
<feComposite in2="hardAlpha" operator="arithmetic" k2="-1" k3="1"/>
<feColorMatrix type="matrix" values="0 0 0 0 0 0 0 0 0 0 0 0 0 0 0 0 0 0 0.3 0"/>
<feBlend mode="normal" in2="shape" result="effect1_innerShadow_1645_753"/>
<feColorMatrix in="SourceAlpha" type="matrix" values="0 0 0 0 0 0 0 0 0 0 0 0 0 0 0 0 0 0 127 0" result="hardAlpha"/>
<feOffset dy="0.333333"/>
<feGaussianBlur stdDeviation="0.0833333"/>
<feComposite in2="hardAlpha" operator="arithmetic" k2="-1" k3="1"/>
<feColorMatrix type="matrix" values="0 0 0 0 1 0 0 0 0 1 0 0 0 0 1 0 0 0 0.3 0"/>
<feBlend mode="normal" in2="effect1_innerShadow_1645_753" result="effect2_innerShadow_1645_753"/>
</filter>
<filter id="filter1_dd_1645_753" x="17.5423" y="3.50033" width="6.08398" height="27.9754" filterUnits="userSpaceOnUse" color-interpolation-filters="sRGB">
<feFlood flood-opacity="0" result="BackgroundImageFix"/>
<feColorMatrix in="SourceAlpha" type="matrix" values="0 0 0 0 0 0 0 0 0 0 0 0 0 0 0 0 0 0 127 0" result="hardAlpha"/>
<feOffset dx="0.666667" dy="1"/>
<feGaussianBlur stdDeviation="0.333333"/>
<feColorMatrix type="matrix" values="0 0 0 0 0 0 0 0 0 0 0 0 0 0 0 0 0 0 0.1 0"/>
<feBlend mode="normal" in2="BackgroundImageFix" result="effect1_dropShadow_1645_753"/>
<feColorMatrix in="SourceAlpha" type="matrix" values="0 0 0 0 0 0 0 0 0 0 0 0 0 0 0 0 0 0 127 0" result="hardAlpha"/>
<feOffset/>
<feGaussianBlur stdDeviation="0.0833333"/>
<feColorMatrix type="matrix" values="0 0 0 0 0 0 0 0 0 0 0 0 0 0 0 0 0 0 0.4 0"/>
<feBlend mode="normal" in2="effect1_dropShadow_1645_753" result="effect2_dropShadow_1645_753"/>
<feBlend mode="normal" in="SourceGraphic" in2="effect2_dropShadow_1645_753" result="shape"/>
</filter>
<linearGradient id="paint0_linear_1645_753" x1="27.64" y1="9.19255" x2="35.1921" y2="16.7446" gradientUnits="userSpaceOnUse">
<stop stop-opacity="0.2"/>
<stop offset="1" stop-opacity="0"/>
</linearGradient>
</defs>
</svg>
